<?xml version="1.0" standalone="no"?>
<!DOCTYPE svg PUBLIC "-//W3C//DTD SVG 20010904//EN"
 "http://www.w3.org/TR/2001/REC-SVG-20010904/DTD/svg10.dtd">
<svg version="1.0" xmlns="http://www.w3.org/2000/svg"
 width="959.000000pt" height="959.000000pt" viewBox="0 0 959.000000 959.000000"
 preserveAspectRatio="xMidYMid meet">

<g transform="translate(0.000000,959.000000) scale(0.100000,-0.100000)"
fill="#000000" stroke="none">
<path d="M7389 8473 c-50 -4 -60 -8 -94 -43 -22 -22 -44 -40 -50 -40 -5 0 -27
-18 -48 -40 -20 -22 -54 -50 -75 -64 -20 -13 -45 -33 -56 -44 -29 -33 -79 -46
-122 -32 -19 7 -47 9 -61 5 -25 -6 -113 17 -144 39 -9 6 -43 35 -75 63 -135
120 -159 129 -259 102 -51 -14 -71 -32 -101 -91 -31 -61 -85 -104 -113 -89
-39 21 -86 13 -132 -24 -39 -30 -51 -35 -101 -35 -62 0 -88 -7 -88 -23 0 -10
-16 -29 -57 -69 -13 -12 -23 -26 -23 -32 0 -11 -39 -71 -75 -117 -11 -14 -35
-34 -52 -44 -23 -14 -33 -27 -33 -45 0 -14 -4 -30 -8 -36 -14 -20 -98 -53
-177 -70 -44 -9 -111 -23 -150 -31 -121 -27 -225 -42 -390 -57 -88 -9 -203
-20 -255 -25 -52 -6 -153 -15 -225 -22 -71 -6 -152 -17 -180 -24 -27 -7 -86
-21 -130 -30 -108 -23 -205 -62 -233 -94 -43 -49 -52 -82 -44 -161 1 -8 13
-28 27 -44 14 -16 25 -32 25 -36 0 -24 205 -144 310 -180 107 -37 406 -108
485 -114 70 -6 180 -38 195 -56 23 -29 57 -39 110 -33 52 5 57 4 73 -20 15
-24 16 -45 6 -229 -6 -124 -16 -220 -24 -246 -8 -23 -15 -57 -15 -75 0 -18 -9
-81 -20 -142 -11 -60 -20 -111 -20 -112 0 -2 -7 -3 -15 -3 -8 0 -15 -4 -15
-10 0 -5 5 -10 10 -10 16 0 12 -13 -18 -47 -29 -34 -52 -43 -52 -20 0 18 -48
39 -71 32 -29 -9 -39 -37 -29 -78 8 -38 5 -65 -10 -102 -5 -11 -11 -52 -14
-91 -6 -69 -5 -72 29 -120 34 -48 44 -71 26 -59 -12 7 -27 -124 -22 -192 1
-21 34 -65 88 -118 13 -12 29 -37 37 -56 12 -29 12 -37 -1 -63 -23 -44 -12
-131 20 -165 14 -14 41 -59 62 -98 21 -43 47 -79 63 -89 15 -9 40 -36 56 -61
21 -33 34 -43 47 -40 14 4 19 0 19 -14 0 -36 41 -14 45 24 2 13 9 35 16 48 12
22 14 22 17 5 3 -16 10 -18 55 -12 29 3 107 9 175 12 l122 7 0 48 c0 44 2 49
23 49 14 0 31 13 47 38 32 47 40 56 68 71 24 13 30 51 8 51 -8 0 -16 5 -18 11
-3 8 -16 10 -43 4 -22 -4 -34 -10 -27 -12 19 -7 14 -23 -7 -23 -11 0 -31 -13
-44 -30 -29 -35 -37 -37 -37 -12 0 9 -9 23 -20 30 -46 28 -7 82 60 82 38 0 94
29 58 30 -14 0 -18 9 -18 40 0 22 4 40 9 40 5 0 11 9 14 20 6 25 27 26 34 1 4
-15 16 -19 74 -20 39 -1 69 2 69 8 0 5 9 13 20 16 11 3 20 13 20 21 0 8 7 14
15 14 8 0 15 9 15 20 0 22 -26 28 -33 8 -3 -10 -9 -9 -23 4 -10 9 -31 19 -46
23 -36 9 -57 33 -38 45 9 6 0 12 -31 20 -71 18 -70 17 -67 60 1 30 -3 45 -20
60 -11 11 -25 20 -31 20 -15 0 -31 58 -31 111 0 37 4 49 15 49 8 0 15 4 15 9
0 14 30 22 34 8 28 -98 27 -97 68 -97 22 0 48 -5 59 -10 27 -15 24 4 -6 34
-25 25 -33 56 -15 56 6 0 10 18 10 40 0 29 4 40 15 40 11 0 15 11 15 40 0 22
5 40 10 40 6 0 10 18 10 40 0 22 -4 40 -10 40 -5 0 -10 7 -10 15 0 8 7 15 15
15 8 0 15 5 15 10 0 6 -7 10 -15 10 -8 0 -15 7 -15 15 0 8 -4 15 -8 15 -5 0
-15 18 -22 40 -8 24 -20 40 -29 40 -9 0 -24 11 -33 24 -16 22 -16 27 -3 53 8
15 15 46 15 68 1 54 44 116 88 127 30 8 32 11 28 45 -2 20 -11 42 -20 48 -24
18 -19 35 10 35 29 0 54 21 54 44 0 20 1 20 45 -1 19 -9 35 -22 35 -29 0 -7 6
-14 12 -16 22 -8 -39 -78 -68 -78 -13 0 -24 -4 -24 -10 0 -5 18 -10 40 -10 22
0 40 5 40 10 0 6 28 10 65 10 63 0 67 -2 106 -40 24 -24 50 -40 64 -40 13 0
29 -8 35 -17 10 -17 10 -17 20 0 9 13 25 17 77 17 63 0 67 1 106 40 30 31 42
38 49 28 5 -7 16 -25 25 -40 10 -16 24 -28 33 -28 9 0 28 -14 43 -31 27 -31
27 -31 102 -24 65 6 75 5 75 -9 0 -11 9 -16 28 -16 l27 0 -29 -19 -28 -19 35
-11 c25 -9 42 -9 63 -1 l29 12 -22 18 c-13 10 -23 27 -23 38 0 11 -6 22 -14
25 -21 8 -27 47 -8 55 9 3 23 12 30 19 9 8 43 13 95 14 45 1 93 4 107 8 28 8
103 -10 165 -40 22 -10 46 -19 53 -19 7 0 24 -7 38 -16 14 -9 43 -20 66 -24
34 -7 44 -4 62 14 l21 21 -27 3 c-16 2 -28 10 -28 17 0 19 -47 65 -65 65 -34
0 -11 18 28 23 115 12 197 30 197 43 0 19 89 18 114 -1 25 -19 46 -19 46 -1 0
10 17 16 53 19 28 3 68 9 88 12 32 6 41 3 68 -24 18 -17 36 -29 40 -27 5 3 17
-10 27 -29 10 -19 24 -35 31 -35 7 0 13 -4 13 -8 0 -7 64 -35 82 -37 14 0 27
-21 30 -50 2 -20 11 -33 26 -40 12 -5 22 -15 22 -22 0 -7 14 -26 31 -42 25
-25 30 -36 28 -68 -2 -30 3 -48 24 -75 15 -19 27 -42 27 -50 0 -29 57 -68 100
-68 41 0 46 -5 31 -29 -5 -8 -24 -12 -52 -10 -44 3 -129 -17 -140 -34 -3 -4
-20 -9 -37 -9 -30 -1 -32 -3 -32 -40 0 -21 -4 -38 -10 -38 -5 0 -10 -9 -10
-20 0 -24 36 -46 44 -27 3 8 11 4 25 -13 11 -14 27 -33 35 -42 9 -10 16 -33
16 -50 0 -50 25 -109 56 -136 21 -18 24 -26 14 -32 -10 -6 -11 -12 -2 -22 6
-7 14 -37 18 -67 6 -45 3 -61 -17 -102 -13 -27 -30 -49 -37 -49 -7 0 -10 4 -7
10 3 5 -1 20 -9 32 -13 18 -16 19 -16 5 0 -15 -2 -15 -20 3 -11 11 -24 20 -30
20 -5 0 -7 6 -4 14 4 9 -6 20 -25 30 -17 9 -37 29 -45 45 -19 35 -33 41 -101
41 -44 0 -56 -4 -65 -20 -6 -12 -8 -30 -5 -40 4 -14 2 -20 -9 -20 -12 0 -16
10 -16 38 0 26 -6 41 -20 50 -29 18 -25 34 8 30 19 -2 27 2 27 12 0 21 -36 25
-47 6 -6 -10 -22 -16 -43 -16 -23 0 -42 -8 -58 -24 -28 -28 -41 -56 -26 -56 6
0 -1 -14 -15 -31 -14 -17 -26 -38 -26 -46 0 -21 -64 -83 -85 -83 -9 0 -22 14
-28 30 -11 30 -12 30 -89 30 -45 0 -78 4 -78 10 0 6 -9 10 -20 10 -21 0 -60
33 -60 50 0 6 -16 10 -36 10 -19 0 -44 5 -55 10 -17 10 -19 7 -19 -25 0 -47
-14 -71 -50 -90 -32 -17 -40 -35 -15 -35 8 0 15 -8 15 -18 0 -17 -10 -19 -112
-19 -143 1 -158 -6 -158 -73 0 -40 3 -48 15 -44 10 4 15 0 15 -15 0 -18 6 -21
40 -21 34 0 40 -3 40 -20 0 -47 -56 -91 -75 -60 -3 6 -24 10 -46 10 -39 0 -39
0 -39 40 l0 40 -40 0 c-22 0 -40 -4 -40 -10 0 -5 -9 -19 -20 -30 -14 -14 -47
-23 -132 -34 -62 -8 -116 -12 -120 -10 -19 12 -5 41 30 59 22 13 36 27 36 38
-1 10 8 20 22 23 39 10 30 39 -16 54 -37 12 -42 12 -63 -8 -30 -28 -49 -28
-85 3 -23 19 -37 24 -60 19 -26 -5 -32 -13 -46 -58 -9 -28 -25 -64 -36 -80
-29 -45 -14 -63 51 -59 29 1 60 10 69 18 16 15 19 13 34 -25 9 -22 19 -40 23
-39 5 1 22 1 40 0 23 -1 32 -6 35 -21 3 -18 6 -18 28 -6 14 7 24 17 23 23 -2
8 23 10 74 9 58 -2 78 -7 85 -20 11 -20 28 -21 28 -1 0 8 5 15 10 15 6 0 10
-33 10 -80 0 -47 -4 -80 -10 -80 -5 0 -10 7 -10 15 0 11 -11 15 -41 15 l-40 0
1 -57 c1 -32 1 -64 1 -70 -1 -19 -90 -17 -97 2 -4 8 -14 15 -24 15 -10 0 -20
-7 -24 -15 -7 -19 -30 -19 -50 0 -23 24 -72 19 -101 -10 -24 -25 -34 -55 -16
-55 8 0 6 -23 -5 -77 -4 -19 -11 -23 -44 -23 -22 0 -40 5 -40 10 0 6 -18 10
-40 10 -51 0 -53 18 -2 22 32 3 37 7 40 31 2 16 9 27 18 27 18 0 14 22 -4 28
-7 2 -12 -3 -12 -12 0 -12 -10 -16 -40 -16 -33 0 -40 -3 -40 -20 0 -18 -7 -20
-80 -20 -72 0 -80 -2 -80 -19 0 -11 -8 -21 -17 -23 -14 -3 -13 -8 10 -33 15
-17 32 -36 38 -44 9 -10 7 -22 -6 -50 -14 -27 -19 -32 -23 -18 -2 11 -11 17
-22 15 -23 -4 -60 29 -60 54 0 27 -32 23 -87 -12 -26 -17 -52 -30 -58 -30 -5
0 -16 -9 -23 -21 -21 -33 -55 -20 -78 29 -1 2 -15 -10 -32 -26 -36 -36 -47
-94 -20 -111 24 -15 23 -27 -4 -35 -27 -7 -50 13 -53 46 -1 13 -3 26 -4 31 0
4 -15 7 -31 7 -17 0 -44 7 -60 15 -17 9 -30 13 -30 10 0 -3 -11 2 -25 11 -17
11 -25 25 -25 45 0 20 -13 40 -47 73 -27 25 -53 46 -60 46 -7 0 -17 9 -23 20
-11 20 -60 29 -60 10 0 -5 -4 -10 -10 -10 -5 0 -12 17 -16 38 -6 38 -54 90
-54 59 0 -8 -7 -18 -16 -21 -14 -5 -13 -9 3 -38 24 -43 39 -59 48 -50 5 4 5 2
2 -5 -4 -6 3 -24 15 -40 33 -41 49 -73 43 -83 -19 -31 93 -128 131 -113 11 4
15 2 11 -4 -10 -17 52 -36 69 -22 11 9 14 5 14 -25 0 -31 3 -36 24 -36 13 0
26 -7 30 -15 3 -8 15 -15 26 -15 15 0 20 -7 20 -25 0 -21 -5 -25 -31 -25 -22
0 -28 -4 -22 -12 4 -7 6 -21 5 -31 -2 -9 4 -20 12 -23 9 -3 16 -11 17 -18 0
-6 18 -26 41 -43 22 -18 38 -33 34 -33 -7 0 41 -90 60 -111 9 -10 25 -20 37
-23 12 -3 63 -47 112 -98 88 -91 108 -107 152 -127 12 -6 37 -26 55 -46 18
-21 49 -45 68 -55 39 -19 180 -102 250 -147 24 -15 63 -35 85 -44 38 -14 82
-35 209 -95 28 -13 59 -24 69 -24 11 0 53 -16 93 -35 40 -19 82 -35 93 -35 11
0 22 -4 25 -9 3 -5 30 -14 58 -20 65 -14 151 -39 198 -57 103 -39 318 -64 547
-64 199 0 320 12 371 37 40 20 37 31 -12 48 -60 21 -87 73 -48 94 12 6 19 23
20 50 2 35 0 41 -18 41 -23 0 -27 28 -5 36 8 4 15 14 15 25 0 10 7 24 16 31 8
7 28 25 43 39 39 36 77 42 101 16 14 -15 36 -21 91 -25 59 -4 72 -8 76 -23 3
-11 9 -19 14 -19 5 0 9 -7 9 -15 0 -26 31 -65 51 -65 11 0 19 -6 19 -14 0 -19
-17 -29 -32 -19 -7 4 -21 6 -30 5 -11 -2 -24 11 -38 37 -13 26 -25 38 -34 35
-8 -3 -28 2 -45 11 -17 9 -31 11 -31 5 0 -18 -78 -12 -88 7 -8 14 -12 11 -20
-18 -5 -18 -13 -42 -17 -51 -5 -14 3 -22 39 -40 25 -12 46 -26 46 -30 0 -4 10
-8 23 -8 20 0 23 -4 19 -36 -2 -19 -11 -38 -18 -41 -30 -11 -12 -40 21 -33 6
1 26 3 45 5 19 2 49 8 65 15 17 6 51 17 76 23 25 7 53 20 63 30 10 9 28 17 42
17 15 0 24 6 24 15 0 8 5 15 11 15 6 0 29 15 52 33 23 18 49 32 58 30 10 -3
19 4 22 17 3 12 11 18 20 14 11 -4 13 1 9 23 -4 19 -7 22 -10 11 -4 -20 -17
-24 -27 -8 -4 6 -16 4 -31 -6 -13 -9 -24 -13 -24 -9 0 4 -7 2 -15 -5 -8 -7
-12 -16 -9 -21 3 -5 -4 -9 -15 -9 -12 0 -26 -9 -33 -20 -16 -26 -31 -26 -23 0
4 14 2 20 -9 20 -22 0 -39 36 -28 58 5 9 7 23 5 30 -5 14 35 32 55 25 21 -9
103 20 98 34 -3 8 2 13 14 13 13 0 18 -5 14 -15 -11 -27 16 -16 50 21 30 33
39 36 81 36 27 -1 51 -5 54 -10 9 -15 43 -9 76 13 47 31 65 53 115 147 14 27
32 56 40 66 53 64 131 293 164 478 18 102 21 322 6 424 -32 215 -41 262 -63
325 -14 39 -40 117 -58 175 -18 58 -38 112 -45 120 -15 18 -67 128 -70 149 -4
23 -66 165 -80 181 -7 8 -29 47 -50 85 -65 123 -69 131 -92 162 -12 17 -22 35
-22 41 0 5 -17 29 -38 53 -21 24 -42 51 -46 59 -14 29 -52 87 -88 135 -46 60
-81 111 -90 130 -5 12 -21 29 -34 36 -13 7 -24 17 -24 23 0 19 -68 86 -97 97
-30 10 -101 101 -126 159 -14 35 -49 72 -160 171 -31 29 -71 75 -87 104 -16
28 -38 62 -49 75 -34 41 -39 49 -91 138 -17 29 -28 57 -26 61 3 4 63 11 133
14 91 4 137 10 160 22 18 9 52 18 75 20 24 2 62 8 86 14 23 6 61 16 85 22 23
5 46 14 52 20 5 5 18 9 29 9 38 0 336 134 336 151 0 5 7 9 16 9 23 0 154 129
170 167 8 18 14 57 14 88 0 51 -3 58 -40 95 -22 22 -52 42 -67 46 -16 3 -44
12 -63 19 -20 7 -80 18 -135 25 -55 6 -125 15 -155 20 -30 5 -93 10 -140 11
-47 1 -121 7 -166 14 -179 29 -246 13 -260 -60 -4 -26 -11 -35 -25 -35 -11 0
-22 6 -25 13 -6 17 -67 21 -110 7 -45 -15 -98 -92 -95 -138 1 -18 13 -58 26
-87 23 -53 25 -55 64 -55 35 0 46 6 88 51 26 28 52 61 56 75 22 62 42 5 35
-97 -5 -59 -10 -76 -35 -107 -47 -58 -85 -75 -177 -80 -61 -2 -99 2 -156 18
-41 12 -91 25 -111 30 -80 21 -168 72 -232 135 -59 58 -65 68 -70 117 -11 90
-8 127 18 204 14 41 25 79 25 85 0 6 10 25 23 42 12 17 27 39 32 48 73 121
111 152 205 169 116 20 148 22 187 9 34 -11 110 -54 123 -70 3 -3 16 -12 29
-19 31 -16 41 0 31 45 -9 41 -35 75 -105 138 -29 26 -86 88 -125 137 -82 103
-166 182 -225 210 -41 20 -62 21 -196 13z m55 -319 c29 -11 17 -36 -48 -99
-56 -55 -140 -104 -154 -91 -12 13 22 101 51 133 42 44 114 71 151 57z m-496
-202 c23 -16 59 -48 79 -71 39 -46 92 -145 93 -174 0 -9 -18 -34 -39 -55 -61
-58 -87 -163 -60 -241 6 -17 16 -31 23 -31 7 0 27 -14 45 -32 30 -30 33 -36
27 -76 -9 -68 -35 -111 -95 -158 -92 -72 -195 -81 -367 -31 -182 52 -401 241
-421 362 -5 33 32 145 48 145 4 0 9 10 13 23 3 13 38 55 77 95 56 55 91 80
158 112 47 23 102 50 121 60 131 69 197 96 240 99 8 0 34 -12 58 -27z m-1058
-1402 c0 -11 -4 -20 -10 -20 -5 0 -10 9 -10 20 0 11 5 20 10 20 6 0 10 -9 10
-20z m-50 -229 c0 -14 -6 -17 -25 -13 -20 3 -23 7 -14 18 16 20 39 17 39 -5z
m864 -50 c3 -5 -1 -14 -9 -21 -12 -10 -18 -10 -30 0 -18 15 -11 30 15 30 10 0
21 -4 24 -9z m41 -31 c3 -5 -1 -10 -9 -10 -9 0 -16 5 -16 10 0 6 4 10 9 10 6
0 13 -4 16 -10z m-945 -430 l25 -19 -28 -10 c-56 -22 -85 -7 -65 32 11 22 37
21 68 -3z m2520 -216 c0 -8 -19 -13 -24 -6 -3 5 1 9 9 9 8 0 15 -2 15 -3z
m-2612 -312 c2 -7 -5 -12 -17 -12 -14 0 -19 5 -14 15 6 17 25 15 31 -3z m-58
-248 c0 -2 -14 -4 -31 -4 -16 0 -28 4 -25 9 5 8 56 3 56 -5z m-286 -249 c-4
-10 -20 -15 -45 -15 -53 0 -50 18 4 23 23 2 43 4 44 5 1 1 0 -5 -3 -13z m636
-625 c0 -8 -37 -15 -62 -11 -5 0 -8 -8 -8 -19 0 -22 -20 -26 -51 -10 -28 16
-23 30 11 30 17 0 30 5 30 10 0 6 18 10 40 10 22 0 40 -4 40 -10z m2020 -610
c0 -5 -4 -10 -10 -10 -5 0 -10 5 -10 10 0 6 5 10 10 10 6 0 10 -4 10 -10z
m-27 -37 c-7 -2 -19 -2 -25 0 -7 3 -2 5 12 5 14 0 19 -2 13 -5z m193 -141 c6
-4 13 -15 17 -24 3 -10 13 -18 22 -18 9 0 15 -9 15 -24 0 -23 -1 -24 -37 -13
-56 17 -97 57 -58 57 8 0 15 7 15 15 0 16 9 19 26 7z m-106 -56 c0 -8 7 -16
15 -20 8 -3 15 -10 15 -16 0 -5 -7 -10 -15 -10 -8 0 -15 5 -15 10 0 6 -9 10
-19 10 -22 0 -35 15 -26 30 9 15 45 12 45 -4z m0 -86 c0 -28 -4 -40 -14 -40
-11 0 -13 -9 -9 -37 3 -21 9 -40 12 -43 14 -11 31 -75 21 -78 -5 -2 -10 -16
-10 -32 l0 -28 -30 29 c-16 17 -34 28 -39 25 -5 -3 -8 14 -8 39 2 30 -2 45
-11 45 -14 0 1 30 31 62 10 11 17 34 17 58 0 33 3 40 20 40 17 0 20 -7 20 -40z
m508 28 c-6 -18 -28 -21 -28 -4 0 9 7 16 16 16 9 0 14 -5 12 -12z"/>
<path d="M4881 6703 c1 -17 3 -21 6 -10 2 9 9 17 14 17 5 0 9 5 9 10 0 6 -7
10 -15 10 -10 0 -15 -9 -14 -27z"/>
<path d="M7012 6197 c-40 -40 -40 -47 -2 -47 17 0 39 -5 50 -12 10 -7 23 -8
27 -4 4 5 2 11 -4 13 -8 3 -13 22 -13 44 0 48 -13 49 -58 6z"/>
<path d="M4776 6188 c-11 -43 -7 -115 9 -128 13 -11 14 -2 11 64 -3 81 -10
101 -20 64z"/>
<path d="M6670 6140 c0 -5 6 -10 14 -10 8 0 18 5 21 10 3 6 -3 10 -14 10 -12
0 -21 -4 -21 -10z"/>
<path d="M7127 5670 c-6 -16 -17 -30 -24 -30 -24 0 -23 -19 1 -35 22 -14 30
-15 61 -4 43 16 47 44 8 54 -19 4 -23 9 -14 15 8 4 10 13 7 19 -12 19 -27 12
-39 -19z"/>
<path d="M8160 5583 c0 -12 -6 -13 -27 -8 -16 4 -44 8 -63 9 -31 1 -35 -2 -35
-24 0 -34 47 -57 82 -41 13 6 32 11 42 11 10 0 27 10 39 23 22 24 28 38 15 36
-5 -1 -10 0 -13 1 -23 9 -40 6 -40 -7z"/>
<path d="M6500 5515 c-9 -11 -10 -19 -2 -27 14 -14 32 -1 32 23 0 23 -13 25
-30 4z"/>
<path d="M6320 5370 c0 -14 -7 -20 -22 -20 -17 0 -19 -3 -10 -12 16 -16 122
-19 122 -4 -1 43 -13 56 -51 56 -32 0 -39 -3 -39 -20z"/>
<path d="M6855 5280 c4 -6 11 -8 16 -5 14 9 11 15 -7 15 -8 0 -12 -5 -9 -10z"/>
<path d="M6768 5239 c-11 -7 -10 -11 2 -19 19 -13 30 -13 30 0 0 6 19 10 42
10 23 0 39 2 37 4 -10 9 -98 13 -111 5z"/>
<path d="M6540 5181 c0 -6 5 -13 10 -16 6 -3 10 1 10 9 0 9 -4 16 -10 16 -5 0
-10 -4 -10 -9z"/>
<path d="M7040 5174 c0 -9 5 -14 12 -12 18 6 21 28 4 28 -9 0 -16 -7 -16 -16z"/>
<path d="M6728 4990 c2 -22 6 -40 8 -40 2 0 4 18 4 40 0 22 -3 40 -8 40 -4 0
-6 -18 -4 -40z"/>
<path d="M6158 4963 c-2 -5 -2 -24 2 -43 l5 -35 19 28 c15 22 16 30 6 42 -14
16 -27 19 -32 8z"/>
<path d="M5921 4854 c0 -11 3 -14 6 -6 3 7 2 16 -1 19 -3 4 -6 -2 -5 -13z"/>
<path d="M6206 4831 c-3 -4 3 -16 14 -26 19 -18 20 -17 20 8 0 26 -22 38 -34
18z"/>
<path d="M5820 4807 c-25 -10 -25 -10 -2 -14 12 -3 32 -3 45 -1 21 3 22 4 2
15 -14 7 -27 8 -45 0z"/>
<path d="M5810 4765 c-11 -13 -8 -15 19 -15 33 0 42 14 15 24 -21 8 -20 8 -34
-9z"/>
<path d="M6640 4649 c0 -15 7 -19 31 -19 26 0 29 3 20 14 -20 24 -51 27 -51 5z"/>
<path d="M5580 4430 c0 -36 3 -40 25 -40 28 0 32 12 10 30 -8 7 -15 21 -15 31
0 11 -4 19 -10 19 -5 0 -10 -18 -10 -40z"/>
<path d="M8956 3204 c-4 -10 -1 -14 6 -12 15 5 23 28 10 28 -5 0 -13 -7 -16
-16z"/>
<path d="M1248 1952 l-48 -3 0 -42 c1 -54 21 -81 55 -75 19 4 25 1 25 -13 0
-24 -43 -66 -64 -63 -9 1 -16 -3 -16 -8 0 -6 -8 -17 -17 -24 -17 -12 -17 -14
4 -33 12 -12 26 -21 30 -21 11 0 34 -61 27 -71 -3 -5 3 -9 13 -9 15 0 14 -2
-5 -16 -18 -12 -26 -13 -37 -4 -12 10 -15 9 -15 -8 0 -15 -9 -22 -37 -29 -36
-8 -38 -11 -44 -58 -8 -62 -44 -156 -64 -168 -8 -4 -15 -17 -15 -28 0 -29 40
-149 50 -149 11 0 60 -88 60 -107 0 -7 7 -16 15 -19 8 -4 15 -11 15 -16 0 -13
55 -92 99 -142 28 -33 33 -44 28 -75 -3 -20 -8 -44 -12 -53 -26 -64 242 -85
960 -75 155 2 489 -13 499 -23 14 -14 43 -13 49 3 3 9 12 8 35 -6 24 -14 36
-15 51 -7 13 7 22 7 26 0 3 -5 15 -10 25 -10 20 0 120 -90 120 -108 0 -6 11
-19 24 -30 44 -34 96 -111 96 -140 -1 -30 -21 -62 -39 -62 -7 0 -19 -7 -27
-15 -9 -8 -12 -15 -7 -15 5 0 13 -10 18 -22 7 -16 28 -29 70 -42 33 -10 68
-22 77 -27 47 -24 208 -40 455 -46 216 -5 277 -3 350 10 81 15 257 35 378 43
28 2 79 9 115 16 36 6 68 11 72 10 4 -1 53 5 110 13 293 43 332 48 568 74 52
6 114 16 137 21 23 6 82 10 132 10 56 0 91 4 93 11 4 12 402 34 552 31 44 -1
83 2 86 8 8 14 286 31 348 21 28 -4 52 -4 52 0 0 5 18 9 39 9 22 0 41 4 43 9
2 5 64 12 138 16 173 8 172 8 190 20 8 5 48 8 88 7 49 -1 82 3 102 13 16 8 49
15 74 15 24 0 46 4 48 9 2 5 26 11 53 14 61 6 146 24 203 43 23 8 65 14 92 14
43 0 50 3 50 19 0 14 9 21 38 26 29 5 41 13 51 36 16 36 7 49 -46 68 -21 8
-40 17 -43 20 -24 29 -56 44 -102 47 -65 4 -138 25 -139 39 -2 20 2 51 11 70
119 276 166 591 124 844 -34 213 -117 323 -170 226 -21 -39 -45 -58 -84 -68
-14 -4 -59 -36 -100 -71 -41 -36 -79 -66 -83 -66 -4 0 -17 -9 -28 -19 -12 -11
-49 -34 -82 -51 -34 -18 -73 -43 -87 -56 -14 -12 -74 -48 -135 -79 -60 -31
-128 -71 -150 -89 -22 -18 -56 -36 -76 -40 -21 -3 -42 -13 -49 -21 -7 -8 -23
-15 -36 -15 -12 0 -25 -4 -28 -9 -3 -4 -20 -11 -37 -15 -17 -3 -44 -20 -60
-37 -28 -30 -28 -32 -22 -112 5 -69 21 -125 43 -147 17 -17 80 -160 80 -181 0
-37 -18 -39 -309 -39 -410 0 -731 26 -731 60 0 4 -14 10 -32 14 -41 8 -32 15
25 21 62 6 129 22 136 32 13 18 59 32 121 36 71 5 120 23 120 44 0 7 9 13 20
13 11 0 20 4 20 8 0 5 19 15 43 21 70 21 120 45 106 50 -8 2 -18 10 -23 18
-13 23 -126 4 -126 -21 0 -15 -131 -46 -224 -52 -39 -3 -100 -12 -136 -21 -67
-16 -154 -12 -192 8 -20 11 -39 6 -118 -29 -62 -28 -270 -14 -291 20 -11 17
-113 38 -185 38 -72 0 -134 14 -134 31 0 5 -42 9 -94 9 -102 0 -151 12 -167
41 -5 10 -16 19 -24 19 -8 0 -15 3 -15 8 0 4 -10 12 -22 17 -12 6 -43 40 -68
77 -64 94 -210 234 -252 242 -38 7 -108 41 -123 60 -5 7 -37 21 -70 31 -71 22
-102 40 -132 74 -19 24 -28 26 -100 27 -89 1 -189 18 -230 39 -30 16 -93 19
-157 8 -28 -4 -55 -21 -100 -64 -51 -47 -67 -71 -88 -126 -14 -37 -30 -99 -36
-137 -7 -45 -18 -76 -32 -91 -15 -16 -23 -40 -26 -81 -3 -32 -10 -62 -16 -65
-7 -5 -10 -45 -9 -113 2 -129 -19 -206 -56 -206 -13 0 -23 -4 -23 -9 0 -4 -30
-11 -67 -15 -73 -7 -662 -9 -728 -2 -64 6 -65 22 -12 128 25 51 57 125 71 163
13 39 31 90 40 114 10 26 16 65 14 95 -3 50 -4 52 -58 88 -30 20 -62 49 -71
64 -11 21 -34 35 -88 54 -40 15 -90 40 -109 56 -67 53 -107 80 -162 107 -30
15 -66 36 -80 47 -14 11 -53 25 -88 31 -41 8 -66 17 -72 29 -15 27 -39 32 -98
18 -50 -11 -56 -10 -68 7 -22 29 1 48 48 41 44 -7 46 -5 16 26 -32 33 -65 44
-120 40z"/>
</g>
</svg>
